<svg xmlns="http://www.w3.org/2000/svg" width="900" height="520" viewBox="0 0 900 520">
<rect x="0" y="0" width="900" height="520" fill="white"/>

<text x="450" y="40" text-anchor="middle" font-family="Arial" font-size="26" font-weight="bold">
Regex Lookahead
</text>

<text x="60" y="85" font-family="Arial" font-size="18">
Input String:
</text>

<!-- Character boxes -->
<rect x="60" y="100" width="40" height="40" fill="#e5e7eb" stroke="black"/>
<rect x="100" y="100" width="40" height="40" fill="#e5e7eb" stroke="black"/>
<rect x="140" y="100" width="40" height="40" fill="#bbf7d0" stroke="black"/>
<rect x="180" y="100" width="40" height="40" fill="#bbf7d0" stroke="black"/>
<rect x="220" y="100" width="40" height="40" fill="#bbf7d0" stroke="black"/>
<rect x="260" y="100" width="40" height="40" fill="#e5e7eb" stroke="black"/>
<rect x="300" y="100" width="40" height="40" fill="#e5e7eb" stroke="black"/>

<text x="80" y="126" text-anchor="middle" font-family="Courier New" font-size="22">A</text>
<text x="120" y="126" text-anchor="middle" font-family="Courier New" font-size="22">B</text>
<text x="160" y="126" text-anchor="middle" font-family="Courier New" font-size="22">C</text>
<text x="200" y="126" text-anchor="middle" font-family="Courier New" font-size="22">D</text>
<text x="240" y="126" text-anchor="middle" font-family="Courier New" font-size="22">C</text>
<text x="280" y="126" text-anchor="middle" font-family="Courier New" font-size="22">D</text>
<text x="320" y="126" text-anchor="middle" font-family="Courier New" font-size="22">C</text>

<text x="60" y="180" font-family="Arial" font-size="18">Regex pattern:</text>
<text x="220" y="180" font-family="Courier New" font-size="20">(?=CDC)</text>

<line x1="250" y1="140" x2="250" y2="210" stroke="black"/>
<line x1="250" y1="210" x2="430" y2="210" stroke="black"/>

<rect x="430" y="185" width="360" height="120" fill="#f3f4f6" stroke="black"/>

<text x="450" y="215" font-family="Arial" font-size="18">Lookahead checks:</text>
<text x="470" y="245" font-family="Courier New" font-size="18">C D C</text>
<text x="470" y="270" font-family="Arial" font-size="17">Characters are NOT consumed.</text>

<line x1="610" y1="305" x2="610" y2="360" stroke="black"/>

<rect x="270" y="360" width="680" height="110" fill="#eefbf0" stroke="black"/>

<text x="290" y="390" font-family="Arial" font-size="18">Result:</text>
<text x="290" y="420" font-family="Courier New" font-size="18">matches = re.findall(r'(?=CDC)', "ABCDCDC")</text>
<text x="290" y="450" font-family="Courier New" font-size="18">Regex Occurrences: 1</text>

</svg>
