<svg width="600" height="150" xmlns="http://www.w3.org/2000/svg">
  <rect x="50" y="50" width="40" height="40" rx="5" fill="#00b894"/>
  <text x="70" y="75" fill="white" font-family="monospace" font-size="20" text-anchor="middle">P</text>
  
  <rect x="95" y="50" width="40" height="40" rx="5" fill="#636e72"/>
  <text x="115" y="75" fill="white" font-family="monospace" font-size="20" text-anchor="middle">y</text>

  <rect x="140" y="50" width="40" height="40" rx="5" fill="#00b894"/>
  <text x="160" y="75" fill="white" font-family="monospace" font-size="20" text-anchor="middle">T</text>
  
  <rect x="185" y="50" width="40" height="40" rx="5" fill="#636e72"/>
  <text x="205" y="75" fill="white" font-family="monospace" font-size="20" text-anchor="middle">h</text>
  
  <rect x="230" y="50" width="40" height="40" rx="5" fill="#00b894"/>
  <text x="250" y="75" fill="white" font-family="monospace" font-size="20" text-anchor="middle">O</text>
  
  <rect x="275" y="50" width="40" height="40" rx="5" fill="#636e72"/>
  <text x="295" y="75" fill="white" font-family="monospace" font-size="20" text-anchor="middle">n</text>

  <path d="M 70 40 L 70 20 L 370 20 L 370 70" fill="none" stroke="#00b894" stroke-width="2" stroke-dasharray="4"/>
  <path d="M 160 40 L 160 20" fill="none" stroke="#00b894" stroke-width="2" stroke-dasharray="4"/>
  <path d="M 250 40 L 250 20" fill="none" stroke="#00b894" stroke-width="2" stroke-dasharray="4"/>
  
  <rect x="370" y="50" width="150" height="40" rx="5" fill="#2d3436" stroke="#00b894" stroke-width="2"/>
  <text x="445" y="75" fill="#00b894" font-family="sans-serif" font-weight="bold" font-size="14" text-anchor="middle">Counter: 3</text>
</svg>
