<svg xmlns="http://www.w3.org/2000/svg" width="1100" height="650" viewBox="0 0 1100 650">
<defs>
<linearGradient id="bg" x1="0" y1="0" x2="0" y2="1">
<stop offset="0%" stop-color="#1e293b"/>
<stop offset="100%" stop-color="#0f172a"/>
</linearGradient>
</defs>

<rect width="1100" height="650" fill="url(#bg)"/>

<text x="550" y="45" text-anchor="middle" font-family="Arial" font-size="30" font-weight="bold" fill="white">
Sieve of Eratosthenes
</text>
<text x="550" y="75" text-anchor="middle" font-family="Arial" font-size="16" fill="#cbd5e1">
Instead of testing every number individually, eliminate multiples and keep only primes.
</text>

<!-- Step cards -->
<rect x="40" y="110" width="240" height="90" rx="10" fill="#1f2937" stroke="#60a5fa" stroke-width="2"/>
<text x="160" y="145" text-anchor="middle" fill="white" font-size="20" font-family="Arial">Step 1</text>
<text x="160" y="175" text-anchor="middle" fill="#fde68a" font-size="16" font-family="Arial">Assume every number is prime</text>

<rect x="430" y="110" width="240" height="90" rx="10" fill="#1f2937" stroke="#22c55e" stroke-width="2"/>
<text x="550" y="145" text-anchor="middle" fill="white" font-size="20" font-family="Arial">Step 2</text>
<text x="550" y="175" text-anchor="middle" fill="#bbf7d0" font-size="16" font-family="Arial">Cross out multiples of 2, 3, 5...</text>

<rect x="820" y="110" width="240" height="90" rx="10" fill="#1f2937" stroke="#f59e0b" stroke-width="2"/>
<text x="940" y="145" text-anchor="middle" fill="white" font-size="20" font-family="Arial">Step 3</text>
<text x="940" y="175" text-anchor="middle" fill="#fde68a" font-size="16" font-family="Arial">Remaining numbers are prime</text>

<!-- Number grid -->
<text x="550" y="245" text-anchor="middle" fill="white" font-size="22" font-family="Arial" font-weight="bold">
Example: Generate primes up to 30
</text>
<rect x="70" y="280" width="60" height="50" rx="8" fill="#22c55e" stroke="#166534" stroke-width="2"/><text x="100" y="312" text-anchor="middle" font-family="Courier New" font-size="20" fill="white">2</text><rect x="160" y="280" width="60" height="50" rx="8" fill="#22c55e" stroke="#166534" stroke-width="2"/><text x="190" y="312" text-anchor="middle" font-family="Courier New" font-size="20" fill="white">3</text><rect x="250" y="280" width="60" height="50" rx="8" fill="#374151" stroke="#6b7280" stroke-width="2"/><text x="280" y="312" text-anchor="middle" font-family="Courier New" font-size="20" fill="#d1d5db">4</text><line x1="258" y1="288" x2="302" y2="322" stroke="#ef4444" stroke-width="3"/><line x1="302" y1="288" x2="258" y2="322" stroke="#ef4444" stroke-width="3"/><rect x="340" y="280" width="60" height="50" rx="8" fill="#22c55e" stroke="#166534" stroke-width="2"/><text x="370" y="312" text-anchor="middle" font-family="Courier New" font-size="20" fill="white">5</text><rect x="430" y="280" width="60" height="50" rx="8" fill="#374151" stroke="#6b7280" stroke-width="2"/><text x="460" y="312" text-anchor="middle" font-family="Courier New" font-size="20" fill="#d1d5db">6</text><line x1="438" y1="288" x2="482" y2="322" stroke="#ef4444" stroke-width="3"/><line x1="482" y1="288" x2="438" y2="322" stroke="#ef4444" stroke-width="3"/><rect x="520" y="280" width="60" height="50" rx="8" fill="#22c55e" stroke="#166534" stroke-width="2"/><text x="550" y="312" text-anchor="middle" font-family="Courier New" font-size="20" fill="white">7</text><rect x="610" y="280" width="60" height="50" rx="8" fill="#374151" stroke="#6b7280" stroke-width="2"/><text x="640" y="312" text-anchor="middle" font-family="Courier New" font-size="20" fill="#d1d5db">8</text><line x1="618" y1="288" x2="662" y2="322" stroke="#ef4444" stroke-width="3"/><line x1="662" y1="288" x2="618" y2="322" stroke="#ef4444" stroke-width="3"/><rect x="700" y="280" width="60" height="50" rx="8" fill="#374151" stroke="#6b7280" stroke-width="2"/><text x="730" y="312" text-anchor="middle" font-family="Courier New" font-size="20" fill="#d1d5db">9</text><line x1="708" y1="288" x2="752" y2="322" stroke="#ef4444" stroke-width="3"/><line x1="752" y1="288" x2="708" y2="322" stroke="#ef4444" stroke-width="3"/><rect x="790" y="280" width="60" height="50" rx="8" fill="#374151" stroke="#6b7280" stroke-width="2"/><text x="820" y="312" text-anchor="middle" font-family="Courier New" font-size="20" fill="#d1d5db">10</text><line x1="798" y1="288" x2="842" y2="322" stroke="#ef4444" stroke-width="3"/><line x1="842" y1="288" x2="798" y2="322" stroke="#ef4444" stroke-width="3"/><rect x="880" y="280" width="60" height="50" rx="8" fill="#22c55e" stroke="#166534" stroke-width="2"/><text x="910" y="312" text-anchor="middle" font-family="Courier New" font-size="20" fill="white">11</text><rect x="70" y="350" width="60" height="50" rx="8" fill="#374151" stroke="#6b7280" stroke-width="2"/><text x="100" y="382" text-anchor="middle" font-family="Courier New" font-size="20" fill="#d1d5db">12</text><line x1="78" y1="358" x2="122" y2="392" stroke="#ef4444" stroke-width="3"/><line x1="122" y1="358" x2="78" y2="392" stroke="#ef4444" stroke-width="3"/><rect x="160" y="350" width="60" height="50" rx="8" fill="#22c55e" stroke="#166534" stroke-width="2"/><text x="190" y="382" text-anchor="middle" font-family="Courier New" font-size="20" fill="white">13</text><rect x="250" y="350" width="60" height="50" rx="8" fill="#374151" stroke="#6b7280" stroke-width="2"/><text x="280" y="382" text-anchor="middle" font-family="Courier New" font-size="20" fill="#d1d5db">14</text><line x1="258" y1="358" x2="302" y2="392" stroke="#ef4444" stroke-width="3"/><line x1="302" y1="358" x2="258" y2="392" stroke="#ef4444" stroke-width="3"/><rect x="340" y="350" width="60" height="50" rx="8" fill="#374151" stroke="#6b7280" stroke-width="2"/><text x="370" y="382" text-anchor="middle" font-family="Courier New" font-size="20" fill="#d1d5db">15</text><line x1="348" y1="358" x2="392" y2="392" stroke="#ef4444" stroke-width="3"/><line x1="392" y1="358" x2="348" y2="392" stroke="#ef4444" stroke-width="3"/><rect x="430" y="350" width="60" height="50" rx="8" fill="#374151" stroke="#6b7280" stroke-width="2"/><text x="460" y="382" text-anchor="middle" font-family="Courier New" font-size="20" fill="#d1d5db">16</text><line x1="438" y1="358" x2="482" y2="392" stroke="#ef4444" stroke-width="3"/><line x1="482" y1="358" x2="438" y2="392" stroke="#ef4444" stroke-width="3"/><rect x="520" y="350" width="60" height="50" rx="8" fill="#22c55e" stroke="#166534" stroke-width="2"/><text x="550" y="382" text-anchor="middle" font-family="Courier New" font-size="20" fill="white">17</text><rect x="610" y="350" width="60" height="50" rx="8" fill="#374151" stroke="#6b7280" stroke-width="2"/><text x="640" y="382" text-anchor="middle" font-family="Courier New" font-size="20" fill="#d1d5db">18</text><line x1="618" y1="358" x2="662" y2="392" stroke="#ef4444" stroke-width="3"/><line x1="662" y1="358" x2="618" y2="392" stroke="#ef4444" stroke-width="3"/><rect x="700" y="350" width="60" height="50" rx="8" fill="#22c55e" stroke="#166534" stroke-width="2"/><text x="730" y="382" text-anchor="middle" font-family="Courier New" font-size="20" fill="white">19</text><rect x="790" y="350" width="60" height="50" rx="8" fill="#374151" stroke="#6b7280" stroke-width="2"/><text x="820" y="382" text-anchor="middle" font-family="Courier New" font-size="20" fill="#d1d5db">20</text><line x1="798" y1="358" x2="842" y2="392" stroke="#ef4444" stroke-width="3"/><line x1="842" y1="358" x2="798" y2="392" stroke="#ef4444" stroke-width="3"/><rect x="880" y="350" width="60" height="50" rx="8" fill="#374151" stroke="#6b7280" stroke-width="2"/><text x="910" y="382" text-anchor="middle" font-family="Courier New" font-size="20" fill="#d1d5db">21</text><line x1="888" y1="358" x2="932" y2="392" stroke="#ef4444" stroke-width="3"/><line x1="932" y1="358" x2="888" y2="392" stroke="#ef4444" stroke-width="3"/><rect x="70" y="420" width="60" height="50" rx="8" fill="#374151" stroke="#6b7280" stroke-width="2"/><text x="100" y="452" text-anchor="middle" font-family="Courier New" font-size="20" fill="#d1d5db">22</text><line x1="78" y1="428" x2="122" y2="462" stroke="#ef4444" stroke-width="3"/><line x1="122" y1="428" x2="78" y2="462" stroke="#ef4444" stroke-width="3"/><rect x="160" y="420" width="60" height="50" rx="8" fill="#22c55e" stroke="#166534" stroke-width="2"/><text x="190" y="452" text-anchor="middle" font-family="Courier New" font-size="20" fill="white">23</text><rect x="250" y="420" width="60" height="50" rx="8" fill="#374151" stroke="#6b7280" stroke-width="2"/><text x="280" y="452" text-anchor="middle" font-family="Courier New" font-size="20" fill="#d1d5db">24</text><line x1="258" y1="428" x2="302" y2="462" stroke="#ef4444" stroke-width="3"/><line x1="302" y1="428" x2="258" y2="462" stroke="#ef4444" stroke-width="3"/><rect x="340" y="420" width="60" height="50" rx="8" fill="#374151" stroke="#6b7280" stroke-width="2"/><text x="370" y="452" text-anchor="middle" font-family="Courier New" font-size="20" fill="#d1d5db">25</text><line x1="348" y1="428" x2="392" y2="462" stroke="#ef4444" stroke-width="3"/><line x1="392" y1="428" x2="348" y2="462" stroke="#ef4444" stroke-width="3"/><rect x="430" y="420" width="60" height="50" rx="8" fill="#374151" stroke="#6b7280" stroke-width="2"/><text x="460" y="452" text-anchor="middle" font-family="Courier New" font-size="20" fill="#d1d5db">26</text><line x1="438" y1="428" x2="482" y2="462" stroke="#ef4444" stroke-width="3"/><line x1="482" y1="428" x2="438" y2="462" stroke="#ef4444" stroke-width="3"/><rect x="520" y="420" width="60" height="50" rx="8" fill="#374151" stroke="#6b7280" stroke-width="2"/><text x="550" y="452" text-anchor="middle" font-family="Courier New" font-size="20" fill="#d1d5db">27</text><line x1="528" y1="428" x2="572" y2="462" stroke="#ef4444" stroke-width="3"/><line x1="572" y1="428" x2="528" y2="462" stroke="#ef4444" stroke-width="3"/><rect x="610" y="420" width="60" height="50" rx="8" fill="#374151" stroke="#6b7280" stroke-width="2"/><text x="640" y="452" text-anchor="middle" font-family="Courier New" font-size="20" fill="#d1d5db">28</text><line x1="618" y1="428" x2="662" y2="462" stroke="#ef4444" stroke-width="3"/><line x1="662" y1="428" x2="618" y2="462" stroke="#ef4444" stroke-width="3"/><rect x="700" y="420" width="60" height="50" rx="8" fill="#22c55e" stroke="#166534" stroke-width="2"/><text x="730" y="452" text-anchor="middle" font-family="Courier New" font-size="20" fill="white">29</text><rect x="790" y="420" width="60" height="50" rx="8" fill="#374151" stroke="#6b7280" stroke-width="2"/><text x="820" y="452" text-anchor="middle" font-family="Courier New" font-size="20" fill="#d1d5db">30</text><line x1="798" y1="428" x2="842" y2="462" stroke="#ef4444" stroke-width="3"/><line x1="842" y1="428" x2="798" y2="462" stroke="#ef4444" stroke-width="3"/>
<rect x="90" y="520" width="920" height="90" rx="10" fill="#111827" stroke="#475569" stroke-width="2"/>
<text x="110" y="550" font-family="Courier New" font-size="18" fill="#22c55e">
for p in range(2, √limit):
</text>
<text x="140" y="578" font-family="Courier New" font-size="18" fill="#e5e7eb">
mark p², p²+p, p²+2p ... as non-prime
</text>

<text x="550" y="635" text-anchor="middle" font-family="Arial" font-size="15" fill="#cbd5e1">
Green = Prime • Red X = Eliminated multiple • Time Complexity: O(n log log n)
</text>

</svg>